<svg width="24" height="24" viewBox="0 0 24 24" fill="none" xmlns="http://www.w3.org/2000/svg">
<g clip-path="url(#clip0)">
<path d="M3.98242 15.0176C3.51367 15.4863 3.25 16.1223 3.25 16.7856V18.5625L2 20.75L3.25 22L5.4375 20.75H7.21445C7.87734 20.75 8.51328 20.4867 8.98203 20.018L13.9289 15.0719L8.92891 10.0719L3.98242 15.0176ZM20.9016 3.09845C19.4379 1.63361 17.0625 1.63361 15.5988 3.09845L12.5875 6.10978L12.0758 5.59806C11.707 5.22931 11.1129 5.23439 10.75 5.59806L9.14961 7.19845C8.78359 7.56447 8.78359 8.15822 9.14961 8.52423L15.4754 14.85C15.8441 15.2188 16.4383 15.2137 16.8012 14.85L18.4016 13.25C18.7676 12.884 18.7676 12.2902 18.4016 11.9242L17.8898 11.4125L20.9012 8.40118C22.3664 6.93712 22.3664 4.5629 20.9016 3.09845Z" fill="black" fill-opacity="0.5413"/>
</g>
<defs>
<clipPath id="clip0">
<rect width="20" height="20" fill="white" transform="translate(2 2)"/>
</clipPath>
</defs>
</svg>
