<svg width="24" height="24" viewBox="0 0 24 24" fill="none" xmlns="http://www.w3.org/2000/svg">
<g clip-path="url(#clip0)">
<path d="M19.7782 14.25C19.7782 14.25 17.556 17.5072 17.556 18.75C17.556 19.9928 18.5511 21 19.7782 21C21.0053 21 22.0004 19.9928 22.0004 18.75C22.0004 17.5072 19.7782 14.25 19.7782 14.25ZM19.4528 10.631L12.2414 3.32941C12.0244 3.10969 11.74 3 11.4556 3C11.1712 3 10.8869 3.10969 10.6702 3.32941L7.83755 6.19746L4.84519 3.16734C4.62818 2.94762 4.27644 2.94762 4.05978 3.16734L3.27436 3.96258C3.05769 4.1823 3.05769 4.53844 3.27436 4.75781L6.26707 7.78758L2.97679 11.119C1.67505 12.4366 1.67505 14.5734 2.97679 15.8914L7.04589 20.0114C7.69658 20.6702 8.54971 21 9.40248 21C10.2556 21 11.1084 20.6706 11.7591 20.0114L19.4525 12.2218C19.8865 11.7824 19.8865 11.0705 19.4528 10.631ZM15.4174 13.1261H4.28964C4.33686 12.9911 4.4136 12.8455 4.54762 12.7102L5.00422 12.2479L7.8379 9.37875L9.87262 11.4389C10.3063 11.878 11.0098 11.878 11.4435 11.4389C11.8771 10.9998 11.8771 10.2875 11.4435 9.84844L9.40874 7.78828L11.4556 5.71582L17.0959 11.4266L15.4174 13.1261Z" fill="black" fill-opacity="0.5413"/>
</g>
<defs>
<clipPath id="clip0">
<rect width="20" height="18" fill="white" transform="translate(2 3)"/>
</clipPath>
</defs>
</svg>
