<svg width="24" height="24" viewBox="0 0 24 24" fill="none" xmlns="http://www.w3.org/2000/svg">
<path d="M2 8.56249V7.93749C2 7.41972 2.41973 6.99999 2.9375 6.99999H17V5.12499C17 4.29034 18.0117 3.87335 18.6004 4.46206L21.7254 7.58706C22.0915 7.95319 22.0915 8.54679 21.7254 8.91288L18.6004 12.0379C18.0139 12.6243 17 12.2131 17 11.375V9.49999H2.9375C2.41973 9.49999 2 9.08026 2 8.56249ZM21.0625 14.5H7V12.625C7 11.7924 5.98977 11.3719 5.39957 11.9621L2.27457 15.0871C1.90848 15.4532 1.90848 16.0468 2.27457 16.4129L5.39957 19.5379C5.9866 20.1249 7 19.7124 7 18.875V17H21.0625C21.5803 17 22 16.5803 22 16.0625V15.4375C22 14.9197 21.5803 14.5 21.0625 14.5Z" fill="black" fill-opacity="0.5413"/>
</svg>
